<svg xmlns="http://www.w3.org/2000/svg" xmlns:xlink="http://www.w3.org/1999/xlink" width="780" height="150" viewBox="0 0 780 150"><defs><style>.a{fill:#f9de67}.b{clip-path:url(#a)}.c{fill:#030504;opacity:.2}.d,.j{fill:#fff}.e{fill:#021833}.f{fill:#92a444}.g{fill:#ffb807}.h{fill:#e6535d}.i{fill:#1e7cee}.j{opacity:.5}</style><clipPath id="a"><rect width="780" height="150" class="a" rx="4" transform="translate(331 908)"/></clipPath></defs><g transform="translate(-332 -908)"><rect width="780" height="150" class="a" rx="4" transform="translate(332 908)"/><g class="b"><g transform="translate(1) translate(523.211 936.868)"><rect width="388.614" height="273.294" class="c" transform="translate(6.945 6.765)"/><rect width="388.614" height="274.8" class="d"/><rect width="388.614" height="247.926" class="e" transform="translate(0 13.436)"/><circle cx="3.124" cy="3.124" r="3.124" class="f" transform="translate(373.555 4.087)"/><circle cx="3.124" cy="3.124" r="3.124" class="g" transform="translate(363.859 4.087)"/><circle cx="3.124" cy="3.124" r="3.124" class="h" transform="translate(354.163 4.087)"/><rect width="21.906" height="247.926" class="i" transform="translate(0 13.436)"/><rect width="83.827" height="5.692" class="d" rx="2.846" transform="translate(34.703 30.46)"/><rect width="48.686" height="5.692" class="d" rx="2.846" transform="translate(44.511 41.366)"/><rect width="54.387" height="5.692" class="d" rx="2.846" transform="translate(69.151 59.037)"/><rect width="83.827" height="5.692" class="d" rx="2.846" transform="translate(70.142 71.358)"/><rect width="34.209" height="5.692" class="d" rx="2.846" transform="translate(44.511 83.676)"/><rect width="53.716" height="5.692" class="d" rx="2.846" transform="translate(44.511 95.995)"/><rect width="19.816" height="5.692" class="d" rx="2.846" transform="translate(68.213 108.315)"/><rect width="83.827" height="5.692" class="d" rx="2.846" transform="translate(114.535 41.366)"/><rect width="50.066" height="5.692" class="d" rx="2.846" transform="translate(137.299 59.037)"/><rect width="35.828" height="5.692" class="d" rx="2.846" transform="translate(169.84 71.358)"/><rect width="83.827" height="5.692" class="d" rx="2.846" transform="translate(98.074 83.676)"/><rect width="41.913" height="5.692" class="d" rx="2.846" transform="translate(117.53 95.995)"/><rect width="37.837" height="5.692" class="d" rx="2.846" transform="translate(98.067 108.315)"/><rect width="56.114" height="5.692" class="d" rx="2.846" transform="translate(214.414 41.366)"/><rect width="56.114" height="5.692" class="d" rx="2.846" transform="translate(310.873 59.037)"/><rect width="83.827" height="5.692" class="d" rx="2.846" transform="translate(205.833 59.037)"/><rect width="83.827" height="5.692" class="d" rx="2.846" transform="translate(223.746 71.358)"/><rect width="32.598" height="5.692" class="d" rx="2.846" transform="translate(196.557 83.676)"/><rect width="57.36" height="5.692" class="d" rx="2.846" transform="translate(150.339 108.315)"/><rect width="60.684" height="5.692" class="d" rx="2.846" transform="translate(34.703 125.365)"/><rect width="48.686" height="5.692" class="d" rx="2.846" transform="translate(44.511 137.685)"/><rect width="54.387" height="5.692" class="d" rx="2.846" transform="translate(69.151 150.004)"/><rect width="83.827" height="5.692" class="d" rx="2.846" transform="translate(70.142 162.323)"/><rect width="34.209" height="5.692" class="d" rx="2.846" transform="translate(169.665 214.735)"/><rect width="53.716" height="5.692" class="d" rx="2.846" transform="translate(44.511 186.963)"/><rect width="19.816" height="5.692" class="d" rx="2.846" transform="translate(68.213 199.282)"/><rect width="83.827" height="5.692" class="d" rx="2.846" transform="translate(114.535 137.685)"/><rect width="50.066" height="5.692" class="d" rx="2.846" transform="translate(137.299 150.004)"/><rect width="35.828" height="5.692" class="d" rx="2.846" transform="translate(169.84 162.323)"/><rect width="83.827" height="5.692" class="d" rx="2.846" transform="translate(219.705 214.735)"/><rect width="41.913" height="5.692" class="d" rx="2.846" transform="translate(117.53 186.963)"/><rect width="53.716" height="5.692" class="d" rx="2.846" transform="translate(43.107 214.735)"/><rect width="41.913" height="5.692" class="d" rx="2.846" transform="translate(115.924 214.735)"/><rect width="37.837" height="5.692" class="d" rx="2.846" transform="translate(98.067 199.282)"/><rect width="56.114" height="5.692" class="d" rx="2.846" transform="translate(214.414 137.685)"/><rect width="37.3" height="5.692" class="d" rx="2.846" transform="translate(219.023 162.323)"/><rect width="35.828" height="5.692" class="d" rx="2.846" transform="translate(111.094 174.644)"/><rect width="37.3" height="5.692" class="d" rx="2.846" transform="translate(160.242 174.644)"/><rect width="32.598" height="5.692" class="d" rx="2.846" transform="translate(67.642 174.644)"/><rect width="57.36" height="5.692" class="d" rx="2.846" transform="translate(150.339 199.282)"/><rect width="13.612" height="11.059" class="j" rx="5.53" transform="translate(4.095 30.076)"/><rect width="13.612" height="11.059" class="j" rx="5.53" transform="translate(4.095 51.278)"/><rect width="13.612" height="11.059" class="j" rx="5.53" transform="translate(4.095 68.499)"/><rect width="13.612" height="11.059" class="j" rx="5.53" transform="translate(4.095 85.722)"/><rect width="13.612" height="11.059" class="j" rx="5.53" transform="translate(4.095 102.943)"/></g></g></g></svg>